<?xml version="1.0" encoding="utf-8" standalone="no"?>
<!DOCTYPE svg PUBLIC "-//W3C//DTD SVG 1.1//EN"
  "http://www.w3.org/Graphics/SVG/1.1/DTD/svg11.dtd">
<!-- Created with matplotlib (http://matplotlib.org/) -->
<svg height="360pt" version="1.1" viewBox="0 0 1080 360" width="1080pt" xmlns="http://www.w3.org/2000/svg" xmlns:xlink="http://www.w3.org/1999/xlink">
 <defs>
  <style type="text/css">
*{stroke-linecap:butt;stroke-linejoin:round;}
  </style>
 </defs>
 <g id="figure_1">
  <g id="patch_1">
   <path d="
M0 360
L1080 360
L1080 0
L0 0
z
" style="fill:#ffffff;"/>
  </g>
  <g id="axes_1">
   <g id="patch_2">
    <path d="
M135 324
L972 324
L972 36
L135 36
z
" style="fill:#e5e5e5;"/>
   </g>
   <g id="matplotlib.axis_1">
    <g id="xtick_1">
     <g id="line2d_1">
      <path clip-path="url(#pe24c60e319)" d="
M299.61 324
L299.61 36" style="fill:none;stroke:#ffffff;stroke-linecap:square;stroke-width:0.5;"/>
     </g>
     <g id="line2d_2">
      <defs>
       <path d="
M0 0
L0 4" id="m98e6b566c6" style="stroke:#555555;stroke-width:0.5;"/>
      </defs>
      <g>
       <use style="fill:#555555;stroke:#555555;stroke-width:0.5;" x="299.61" xlink:href="#m98e6b566c6" y="324.0"/>
      </g>
     </g>
     <g id="line2d_3">
      <defs>
       <path d="
M0 0
L0 -4" id="m4ba1eff96d" style="stroke:#555555;stroke-width:0.5;"/>
      </defs>
      <g>
       <use style="fill:#555555;stroke:#555555;stroke-width:0.5;" x="299.61" xlink:href="#m4ba1eff96d" y="36.0"/>
      </g>
     </g>
    </g>
    <g id="xtick_2">
     <g id="line2d_4">
      <path clip-path="url(#pe24c60e319)" d="
M486.54 324
L486.54 36" style="fill:none;stroke:#ffffff;stroke-linecap:square;stroke-width:0.5;"/>
     </g>
     <g id="line2d_5">
      <g>
       <use style="fill:#555555;stroke:#555555;stroke-width:0.5;" x="486.54" xlink:href="#m98e6b566c6" y="324.0"/>
      </g>
     </g>
     <g id="line2d_6">
      <g>
       <use style="fill:#555555;stroke:#555555;stroke-width:0.5;" x="486.54" xlink:href="#m4ba1eff96d" y="36.0"/>
      </g>
     </g>
    </g>
    <g id="xtick_3">
     <g id="line2d_7">
      <path clip-path="url(#pe24c60e319)" d="
M637.2 324
L637.2 36" style="fill:none;stroke:#ffffff;stroke-linecap:square;stroke-width:0.5;"/>
     </g>
     <g id="line2d_8">
      <g>
       <use style="fill:#555555;stroke:#555555;stroke-width:0.5;" x="637.2" xlink:href="#m98e6b566c6" y="324.0"/>
      </g>
     </g>
     <g id="line2d_9">
      <g>
       <use style="fill:#555555;stroke:#555555;stroke-width:0.5;" x="637.2" xlink:href="#m4ba1eff96d" y="36.0"/>
      </g>
     </g>
    </g>
    <g id="xtick_4">
     <g id="line2d_10">
      <path clip-path="url(#pe24c60e319)" d="
M804.6 324
L804.6 36" style="fill:none;stroke:#ffffff;stroke-linecap:square;stroke-width:0.5;"/>
     </g>
     <g id="line2d_11">
      <g>
       <use style="fill:#555555;stroke:#555555;stroke-width:0.5;" x="804.6" xlink:href="#m98e6b566c6" y="324.0"/>
      </g>
     </g>
     <g id="line2d_12">
      <g>
       <use style="fill:#555555;stroke:#555555;stroke-width:0.5;" x="804.6" xlink:href="#m4ba1eff96d" y="36.0"/>
      </g>
     </g>
    </g>
   </g>
   <g id="matplotlib.axis_2">
    <g id="ytick_1">
     <g id="line2d_13">
      <path clip-path="url(#pe24c60e319)" d="
M135 324
L972 324" style="fill:none;stroke:#ffffff;stroke-linecap:square;stroke-width:0.5;"/>
     </g>
     <g id="line2d_14">
      <defs>
       <path d="
M0 0
L-4 0" id="m5191f13a99" style="stroke:#555555;stroke-width:0.5;"/>
      </defs>
      <g>
       <use style="fill:#555555;stroke:#555555;stroke-width:0.5;" x="135.0" xlink:href="#m5191f13a99" y="324.0"/>
      </g>
     </g>
     <g id="line2d_15">
      <defs>
       <path d="
M0 0
L4 0" id="mdd7d7fa58b" style="stroke:#555555;stroke-width:0.5;"/>
      </defs>
      <g>
       <use style="fill:#555555;stroke:#555555;stroke-width:0.5;" x="972.0" xlink:href="#mdd7d7fa58b" y="324.0"/>
      </g>
     </g>
     <g id="text_1">
      <!-- 0 -->
      <defs>
       <path d="
M6.45312 30.8594
Q6.54688 37.9375 8.76562 43.5469
Q10.9844 49.1719 14.6875 53.0469
Q18.4062 56.9375 23.2188 59
Q28.0312 61.0781 33.2969 61.1406
Q40.4375 61.1875 45.2656 58.8125
Q50.0938 56.4531 53.0469 52.2969
Q56 48.1406 57.25 42.5
Q58.5 36.8594 58.4531 30.4219
Q58.4062 23.3906 56.3281 17.5312
Q54.25 11.6719 50.6875 7.5
Q47.125 3.32812 42.3281 0.96875
Q37.5469 -1.375 32.0781 -1.375
Q27.4375 -1.375 23.7031 -0.140625
Q19.9688 1.07812 17.1094 3.25
Q14.2656 5.42188 12.2031 8.4375
Q10.1562 11.4688 8.85938 15.0625
Q7.5625 18.6562 6.96875 22.6562
Q6.39062 26.6562 6.45312 30.8594
M32.4688 3.76562
Q36.8594 3.65625 39.9062 5.40625
Q42.9688 7.17188 44.8438 10.5625
Q46.7344 13.9688 47.5781 18.875
Q48.4375 23.7812 48.4375 29.9844
Q48.4375 35.4531 47.5312 40.1562
Q46.625 44.875 44.7031 48.3594
Q42.7812 51.8594 39.7969 53.8594
Q36.8125 55.8594 32.6719 55.9531
Q28.2656 56 25.1875 54.3438
Q22.125 52.6875 20.1719 49.5156
Q18.2188 46.3438 17.3281 41.7188
Q16.4531 37.1094 16.4531 31.2969
Q16.4531 26.0781 17.4062 21.1719
Q18.3594 16.2656 20.3281 12.4219
Q22.3125 8.59375 25.3125 6.21875
Q28.3281 3.85938 32.4688 3.76562" id="Merriweather-30"/>
      </defs>
      <g style="fill:#555555;" transform="translate(117.6203125 328.89515625)scale(0.18 -0.18)">
       <use xlink:href="#Merriweather-30"/>
      </g>
     </g>
    </g>
    <g id="ytick_2">
     <g id="line2d_16">
      <path clip-path="url(#pe24c60e319)" d="
M135 292
L972 292" style="fill:none;stroke:#ffffff;stroke-linecap:square;stroke-width:0.5;"/>
     </g>
     <g id="line2d_17">
      <g>
       <use style="fill:#555555;stroke:#555555;stroke-width:0.5;" x="135.0" xlink:href="#m5191f13a99" y="292.0"/>
      </g>
     </g>
     <g id="line2d_18">
      <g>
       <use style="fill:#555555;stroke:#555555;stroke-width:0.5;" x="972.0" xlink:href="#mdd7d7fa58b" y="292.0"/>
      </g>
     </g>
     <g id="text_2">
      <!-- 10 -->
      <defs>
       <path d="
M5.67188 4.15625
L19.875 5.46875
L19.875 50
L6.59375 47.4062
L5.60938 52.25
Q7.07812 52.6875 9.07812 53.4219
Q11.0781 54.1562 13.25 55.0312
Q15.4375 55.9062 17.625 56.9062
Q19.8281 57.9062 21.6719 58.8125
Q23.5312 59.7188 24.9219 60.4688
Q26.3125 61.2344 26.9062 61.7188
L29.4375 60.9844
L29.2969 5.42188
L42.3906 4.15625
L42.3906 0
L5.67188 0
z
" id="Merriweather-31"/>
      </defs>
      <g style="fill:#555555;" transform="translate(109.2784375 296.89515625)scale(0.18 -0.18)">
       <use xlink:href="#Merriweather-31"/>
       <use x="45.556640625" xlink:href="#Merriweather-30"/>
      </g>
     </g>
    </g>
    <g id="ytick_3">
     <g id="line2d_19">
      <path clip-path="url(#pe24c60e319)" d="
M135 260
L972 260" style="fill:none;stroke:#ffffff;stroke-linecap:square;stroke-width:0.5;"/>
     </g>
     <g id="line2d_20">
      <g>
       <use style="fill:#555555;stroke:#555555;stroke-width:0.5;" x="135.0" xlink:href="#m5191f13a99" y="260.0"/>
      </g>
     </g>
     <g id="line2d_21">
      <g>
       <use style="fill:#555555;stroke:#555555;stroke-width:0.5;" x="972.0" xlink:href="#mdd7d7fa58b" y="260.0"/>
      </g>
     </g>
     <g id="text_3">
      <!-- 20 -->
      <defs>
       <path d="
M6.39062 3.85938
Q12.7969 7.85938 18.6562 12.5
Q24.5156 17.1406 29 22.0469
Q33.5 26.9531 36.1562 31.9375
Q38.8125 36.9219 38.8125 41.6094
Q38.8125 43.9531 38.125 46.3594
Q37.4531 48.7812 35.9062 50.7344
Q34.375 52.6875 31.9375 53.9219
Q29.5 55.1719 25.9219 55.1719
Q23.4375 55.1719 20.9219 54.4688
Q18.4062 53.7656 16.1406 52.6875
Q13.875 51.6094 12.0156 50.3594
Q10.1562 49.125 8.9375 48.0469
L6.64062 51.7656
Q8.01562 53.4688 10.3281 55.2188
Q12.6406 56.9844 15.5938 58.4219
Q18.5625 59.8594 22.0156 60.7656
Q25.4844 61.6719 29.1562 61.6719
Q34.1875 61.6719 37.8594 60.2344
Q41.5469 58.7969 43.9375 56.4219
Q46.3438 54.0469 47.4844 51.0156
Q48.6406 48 48.6406 44.8281
Q48.6406 39.75 46.3125 34.4688
Q44 29.2031 39.9375 24.125
Q35.8906 19.0469 30.3125 14.3594
Q24.75 9.67188 18.3125 5.8125
L46.1875 7.85938
L50.875 14.7969
L55.0781 13.4219
L51.9062 0
L7.8125 0
z
" id="Merriweather-32"/>
      </defs>
      <g style="fill:#555555;" transform="translate(106.8878125 264.89515625)scale(0.18 -0.18)">
       <use xlink:href="#Merriweather-32"/>
       <use x="59.619140625" xlink:href="#Merriweather-30"/>
      </g>
     </g>
    </g>
    <g id="ytick_4">
     <g id="line2d_22">
      <path clip-path="url(#pe24c60e319)" d="
M135 228
L972 228" style="fill:none;stroke:#ffffff;stroke-linecap:square;stroke-width:0.5;"/>
     </g>
     <g id="line2d_23">
      <g>
       <use style="fill:#555555;stroke:#555555;stroke-width:0.5;" x="135.0" xlink:href="#m5191f13a99" y="228.0"/>
      </g>
     </g>
     <g id="line2d_24">
      <g>
       <use style="fill:#555555;stroke:#555555;stroke-width:0.5;" x="972.0" xlink:href="#mdd7d7fa58b" y="228.0"/>
      </g>
     </g>
     <g id="text_4">
      <!-- 30 -->
      <defs>
       <path d="
M6.0625 -10.1562
Q10.2031 -10.8906 14.1094 -10.6406
Q18.0156 -10.4062 21.4531 -9.34375
Q24.9062 -8.29688 27.75 -6.48438
Q30.6094 -4.6875 32.6562 -2.35938
Q34.7188 -0.046875 35.8438 2.70312
Q36.9688 5.46875 36.9688 8.5
Q36.9688 12.0156 36.125 14.75
Q35.2969 17.4844 33.3438 19.3594
Q31.3906 21.2344 28.1719 22.2344
Q24.9531 23.25 20.2188 23.25
L12.7031 21.5781
L12.7031 28.125
Q16.75 28.9062 20.3906 30.2969
Q24.0312 31.6875 26.8125 33.6094
Q29.5938 35.5469 31.2188 37.9062
Q32.8594 40.2812 32.9062 43.0625
Q32.9531 46.4375 32.0312 48.7812
Q31.1094 51.125 29.4688 52.5781
Q27.8281 54.0469 25.6719 54.7031
Q23.5312 55.375 21.1875 55.375
Q18.4062 55.375 16.1875 54.9062
Q13.9688 54.4375 12.125 53.6562
Q10.2969 52.875 8.73438 51.8906
Q7.17188 50.9219 5.8125 49.8594
L3.21875 54.1562
Q4.34375 55.3281 6.29688 56.6875
Q8.25 58.0625 10.9375 59.2344
Q13.625 60.4062 17.0156 61.1875
Q20.4062 61.9688 24.3594 61.9688
Q27.7812 61.9688 31.125 61.0781
Q34.4688 60.2031 37.0781 58.2969
Q39.7031 56.3906 41.3125 53.3438
Q42.9219 50.2969 42.9219 46
Q42.9219 43.0625 41.5 40.0312
Q40.0938 37.0156 37.7656 34.375
Q35.4531 31.7344 32.5156 29.7031
Q29.5938 27.6875 26.5156 26.7656
Q31.7344 26.9531 35.5938 25.7344
Q39.4531 24.5156 42.0156 22.2656
Q44.5781 20.0156 45.8281 16.9375
Q47.0781 13.875 47.0781 10.4531
Q47.0781 6.6875 45.7344 3.01562
Q44.3906 -0.640625 41.8438 -3.85938
Q39.3125 -7.07812 35.6875 -9.6875
Q32.0781 -12.3125 27.5156 -13.9375
Q22.9531 -15.5781 17.5469 -16.0625
Q12.1562 -16.5469 6.10938 -15.5312
Q6.10938 -14.1562 6.07812 -12.8438
Q6.0625 -11.5312 6.0625 -10.1562" id="Merriweather-33"/>
      </defs>
      <g style="fill:#555555;" transform="translate(107.610625 232.89515625)scale(0.18 -0.18)">
       <use xlink:href="#Merriweather-33"/>
       <use x="52.44140625" xlink:href="#Merriweather-30"/>
      </g>
     </g>
    </g>
    <g id="ytick_5">
     <g id="line2d_25">
      <path clip-path="url(#pe24c60e319)" d="
M135 196
L972 196" style="fill:none;stroke:#ffffff;stroke-linecap:square;stroke-width:0.5;"/>
     </g>
     <g id="line2d_26">
      <g>
       <use style="fill:#555555;stroke:#555555;stroke-width:0.5;" x="135.0" xlink:href="#m5191f13a99" y="196.0"/>
      </g>
     </g>
     <g id="line2d_27">
      <g>
       <use style="fill:#555555;stroke:#555555;stroke-width:0.5;" x="972.0" xlink:href="#mdd7d7fa58b" y="196.0"/>
      </g>
     </g>
     <g id="text_5">
      <!-- 40 -->
      <defs>
       <path d="
M3.65625 4.59375
Q7.46875 11.5312 11.2969 18.2344
Q15.1406 24.9531 18.9688 31.9375
Q22.7969 38.9219 26.625 46.3594
Q30.4688 53.8125 34.2812 62.1562
L37.3594 62.1562
L43.1094 57.8594
L15.5312 10.6875
L12.0156 5.60938
L37.4531 7.125
L37.5938 29.9844
L46.1875 32.375
L46.1875 7.67188
L56.5469 8.29688
L56.5469 0
L46.1875 0
L46.1875 -18.3594
L37.3594 -18.3594
L37.4531 0
L5.17188 0
z
" id="Merriweather-34"/>
      </defs>
      <g style="fill:#555555;" transform="translate(106.114375 200.89515625)scale(0.18 -0.18)">
       <use xlink:href="#Merriweather-34"/>
       <use x="61.181640625" xlink:href="#Merriweather-30"/>
      </g>
     </g>
    </g>
    <g id="ytick_6">
     <g id="line2d_28">
      <path clip-path="url(#pe24c60e319)" d="
M135 164
L972 164" style="fill:none;stroke:#ffffff;stroke-linecap:square;stroke-width:0.5;"/>
     </g>
     <g id="line2d_29">
      <g>
       <use style="fill:#555555;stroke:#555555;stroke-width:0.5;" x="135.0" xlink:href="#m5191f13a99" y="164.0"/>
      </g>
     </g>
     <g id="line2d_30">
      <g>
       <use style="fill:#555555;stroke:#555555;stroke-width:0.5;" x="972.0" xlink:href="#mdd7d7fa58b" y="164.0"/>
      </g>
     </g>
     <g id="text_6">
      <!-- 50 -->
      <defs>
       <path d="
M6.6875 -11.9688
Q10.2031 -12.3594 13.7969 -11.7969
Q17.3906 -11.2344 20.75 -9.8125
Q24.125 -8.40625 27.0312 -6.25
Q29.9375 -4.10938 32.125 -1.34375
Q34.3281 1.42188 35.5625 4.65625
Q36.8125 7.90625 36.8125 11.5312
Q36.8125 15.875 35.7344 19
Q34.6719 22.125 32.7188 24.1719
Q30.7656 26.2188 28.0781 27.2656
Q25.3906 28.3281 22.1719 28.4844
Q18.9531 28.6562 15.3281 28.0469
Q11.7188 27.4375 7.95312 26.1719
L6.25 27.6406
L10.1094 60.4062
L35.9844 60.4062
L37.4062 61.3281
L42.9219 61.3281
L40.5312 52.3438
L17.2344 52.3438
L13.5781 31.5
Q17.1406 33.2031 21.0156 33.8594
Q24.9062 34.5156 28.5938 34.0938
Q32.2812 33.6875 35.5938 32.125
Q38.9219 30.5625 41.4062 27.9062
Q43.8906 25.25 45.3594 21.4375
Q46.8281 17.625 46.8281 12.6406
Q46.8281 9.23438 45.625 5.6875
Q44.4375 2.15625 42.1875 -1.17188
Q39.9375 -4.5 36.7812 -7.39062
Q33.6406 -10.2969 29.7344 -12.4688
Q25.8281 -14.6562 21.2656 -15.8906
Q16.7031 -17.1406 11.6719 -17.1406
Q10.4531 -17.1406 9.17188 -16.9844
Q7.90625 -16.8438 6.64062 -16.4531
z
" id="Merriweather-35"/>
      </defs>
      <g style="fill:#555555;" transform="translate(108.11125 168.89515625)scale(0.18 -0.18)">
       <use xlink:href="#Merriweather-35"/>
       <use x="52.685546875" xlink:href="#Merriweather-30"/>
      </g>
     </g>
    </g>
    <g id="ytick_7">
     <g id="line2d_31">
      <path clip-path="url(#pe24c60e319)" d="
M135 132
L972 132" style="fill:none;stroke:#ffffff;stroke-linecap:square;stroke-width:0.5;"/>
     </g>
     <g id="line2d_32">
      <g>
       <use style="fill:#555555;stroke:#555555;stroke-width:0.5;" x="135.0" xlink:href="#m5191f13a99" y="132.0"/>
      </g>
     </g>
     <g id="line2d_33">
      <g>
       <use style="fill:#555555;stroke:#555555;stroke-width:0.5;" x="972.0" xlink:href="#mdd7d7fa58b" y="132.0"/>
      </g>
     </g>
     <g id="text_7">
      <!-- 60 -->
      <defs>
       <path d="
M6.20312 27.4844
Q6.20312 33.7969 7.9375 39.4844
Q9.67188 45.1719 12.6875 50.125
Q15.7188 55.0781 19.7969 59.2188
Q23.875 63.375 28.5312 66.5469
Q33.2031 69.7344 38.2344 71.8438
Q43.2656 73.9688 48.1875 74.9062
L50.2031 70.7969
Q42.2344 68.2188 36 64.0156
Q29.7812 59.8125 25.4531 54.6562
Q21.1406 49.5156 18.7969 43.8281
Q16.4531 38.1406 16.2656 32.5625
Q16.0625 27.1562 16.6406 22.0156
Q17.2344 16.8906 19.0625 12.8906
Q20.9062 8.89062 24.1406 6.46875
Q27.3906 4.04688 32.5156 4.04688
Q36.2344 4.04688 38.9219 5.6875
Q41.6094 7.32812 43.3281 9.90625
Q45.0625 12.5 45.8906 15.6719
Q46.7344 18.8438 46.7344 21.9219
Q46.7344 26.5625 45.7969 30.125
Q44.875 33.6875 43.2656 36.0781
Q41.6562 38.4844 39.4531 39.7031
Q37.25 40.9219 34.6719 40.9219
Q32.6719 40.9219 31.1562 40.6719
Q29.6406 40.4375 28.5156 40.0469
Q27.3906 39.6562 26.5156 39.1094
Q25.6406 38.5781 24.8594 37.9844
L22.7031 41.8438
Q23.2969 42.7188 24.75 43.6875
Q26.2188 44.6719 28.2188 45.4531
Q30.2188 46.2344 32.5312 46.75
Q34.8594 47.2656 37.2031 47.2656
Q41.8906 47.2656 45.375 45.3594
Q48.875 43.4531 51.1875 40.4219
Q53.5156 37.4062 54.6562 33.5625
Q55.8125 29.7344 55.8125 25.875
Q55.8125 22.75 55.0781 19.5312
Q54.3438 16.3125 52.875 13.3281
Q51.4219 10.3594 49.2969 7.73438
Q47.1719 5.125 44.4062 3.17188
Q41.6562 1.21875 38.25 0.09375
Q34.8594 -1.03125 30.9062 -1.03125
Q25.0938 -1.03125 20.5 1.26562
Q15.9219 3.5625 12.75 7.46875
Q9.57812 11.375 7.89062 16.5469
Q6.20312 21.7344 6.20312 27.4844" id="Merriweather-36"/>
      </defs>
      <g style="fill:#555555;" transform="translate(106.5925 136.89515625)scale(0.18 -0.18)">
       <use xlink:href="#Merriweather-36"/>
       <use x="61.083984375" xlink:href="#Merriweather-30"/>
      </g>
     </g>
    </g>
    <g id="ytick_8">
     <g id="line2d_34">
      <path clip-path="url(#pe24c60e319)" d="
M135 100
L972 100" style="fill:none;stroke:#ffffff;stroke-linecap:square;stroke-width:0.5;"/>
     </g>
     <g id="line2d_35">
      <g>
       <use style="fill:#555555;stroke:#555555;stroke-width:0.5;" x="135.0" xlink:href="#m5191f13a99" y="100.0"/>
      </g>
     </g>
     <g id="line2d_36">
      <g>
       <use style="fill:#555555;stroke:#555555;stroke-width:0.5;" x="972.0" xlink:href="#mdd7d7fa58b" y="100.0"/>
      </g>
     </g>
     <g id="text_8">
      <!-- 70 -->
      <defs>
       <path d="
M17.8281 -12.0156
Q25.5938 3.85938 32.5625 20.5
Q39.5469 37.1562 46.7344 54.5938
L16.4531 53.5156
L11.8594 44.7812
L7.03125 45.2656
L9.375 61.1875
L52.9844 61.1875
L54.6875 59.2812
L27.5938 -15.4375
z
" id="Merriweather-37"/>
      </defs>
      <g style="fill:#555555;" transform="translate(106.8709375 104.89515625)scale(0.18 -0.18)">
       <use xlink:href="#Merriweather-37"/>
       <use x="60.3515625" xlink:href="#Merriweather-30"/>
      </g>
     </g>
    </g>
    <g id="ytick_9">
     <g id="line2d_37">
      <path clip-path="url(#pe24c60e319)" d="
M135 68
L972 68" style="fill:none;stroke:#ffffff;stroke-linecap:square;stroke-width:0.5;"/>
     </g>
     <g id="line2d_38">
      <g>
       <use style="fill:#555555;stroke:#555555;stroke-width:0.5;" x="135.0" xlink:href="#m5191f13a99" y="68.0"/>
      </g>
     </g>
     <g id="line2d_39">
      <g>
       <use style="fill:#555555;stroke:#555555;stroke-width:0.5;" x="972.0" xlink:href="#mdd7d7fa58b" y="68.0"/>
      </g>
     </g>
     <g id="text_9">
      <!-- 80 -->
      <defs>
       <path d="
M6.29688 18.2188
Q6.29688 20.9531 7.25 23.7031
Q8.20312 26.4688 10.1094 29.0469
Q12.0156 31.6406 14.8906 34
Q17.7812 36.375 21.5781 38.2812
Q19.1406 39.9375 17.0312 41.8438
Q14.9375 43.75 13.3906 46.0156
Q11.8594 48.2969 10.9531 50.9688
Q10.0625 53.6562 10.0625 56.8906
Q10.0625 61.7188 11.9688 65.2812
Q13.875 68.8438 16.9688 71.1875
Q20.0625 73.5312 24.0156 74.6719
Q27.9844 75.8281 32.0312 75.8281
Q36.2344 75.8281 39.8594 74.6094
Q43.5 73.3906 46.2031 71.1719
Q48.9219 68.9531 50.4531 65.8281
Q52 62.7031 52 58.8906
Q52 56.1562 51.0469 53.2031
Q50.0938 50.25 48.3281 47.4531
Q46.5781 44.6719 44.0938 42.2969
Q41.6094 39.9375 38.5312 38.375
Q41.75 36.4219 44.75 34.375
Q47.75 32.3281 50.0469 30.0469
Q52.3438 27.7812 53.75 25.2188
Q55.1719 22.6562 55.2188 19.6719
Q55.2812 16.0156 54.3281 13.0312
Q53.375 10.0625 51.6406 7.71875
Q49.9062 5.375 47.5312 3.65625
Q45.1719 1.95312 42.4531 0.828125
Q39.75 -0.296875 36.7656 -0.828125
Q33.7969 -1.375 30.8594 -1.375
Q28.0312 -1.375 25.0938 -0.859375
Q22.1719 -0.34375 19.4375 0.671875
Q16.7031 1.70312 14.3125 3.29688
Q11.9219 4.89062 10.125 7.07812
Q8.34375 9.28125 7.3125 12.0312
Q6.29688 14.7969 6.29688 18.2188
M33.3438 41.5
Q35.4531 42.0938 37.3281 43.5469
Q39.2031 45.0156 40.6719 46.9844
Q42.1406 48.9688 43.0156 51.2656
Q43.8906 53.5625 44 55.7656
Q44.1406 59.1875 43.2031 62.0312
Q42.2812 64.8906 40.5938 66.8906
Q38.9219 68.8906 36.5469 70.0156
Q34.1875 71.1406 31.5 71.1406
Q28.9062 71.1406 26.4688 70.2344
Q24.0312 69.3438 22.0781 67.7031
Q20.125 66.0625 18.9531 63.7188
Q17.7812 61.375 17.7812 58.5
Q17.7812 55.9062 19.0469 53.6094
Q20.3125 51.3125 22.4844 49.2656
Q24.6562 47.2188 27.4688 45.2812
Q30.2812 43.3594 33.3438 41.5
M15.2812 20.5156
Q15.2812 17.0469 16.4531 13.9688
Q17.625 10.8906 19.8125 8.59375
Q22.0156 6.29688 25.1875 4.95312
Q28.375 3.60938 32.4219 3.60938
Q34.9688 3.60938 37.5312 4.51562
Q40.0938 5.42188 42.1406 7.04688
Q44.1875 8.6875 45.4531 11.0312
Q46.7344 13.375 46.7344 16.2656
Q46.7344 19.5312 44.9219 22.0938
Q43.1094 24.6562 40.1719 26.875
Q37.25 29.1094 33.5938 31.1094
Q29.9375 33.1094 26.2188 35.2969
Q24.0312 34.2812 22.0469 32.7656
Q20.0625 31.25 18.5781 29.3594
Q17.0938 27.4844 16.1875 25.2344
Q15.2812 23 15.2812 20.5156" id="Merriweather-38"/>
      </defs>
      <g style="fill:#555555;" transform="translate(106.6965625 72.89515625)scale(0.18 -0.18)">
       <use xlink:href="#Merriweather-38"/>
       <use x="60.595703125" xlink:href="#Merriweather-30"/>
      </g>
     </g>
    </g>
    <g id="ytick_10">
     <g id="line2d_40">
      <path clip-path="url(#pe24c60e319)" d="
M135 36
L972 36" style="fill:none;stroke:#ffffff;stroke-linecap:square;stroke-width:0.5;"/>
     </g>
     <g id="line2d_41">
      <g>
       <use style="fill:#555555;stroke:#555555;stroke-width:0.5;" x="135.0" xlink:href="#m5191f13a99" y="36.0"/>
      </g>
     </g>
     <g id="line2d_42">
      <g>
       <use style="fill:#555555;stroke:#555555;stroke-width:0.5;" x="972.0" xlink:href="#mdd7d7fa58b" y="36.0"/>
      </g>
     </g>
     <g id="text_10">
      <!-- 90 -->
      <defs>
       <path d="
M11.5781 -15.5781
Q16.8906 -13.875 21.3594 -11.1094
Q25.8281 -8.34375 29.4688 -4.85938
Q33.1094 -1.375 35.8906 2.65625
Q38.6719 6.6875 40.5781 10.9375
Q42.4844 15.1875 43.5312 19.4375
Q44.5781 23.6875 44.7344 27.6406
Q44.9219 33.0625 44.4531 38.1875
Q44 43.3125 42.3125 47.3125
Q40.625 51.3125 37.5 53.7344
Q34.375 56.1562 29.25 56.1562
Q25.5312 56.1562 22.8438 54.5156
Q20.1719 52.875 18.4375 50.2812
Q16.7031 47.7031 15.875 44.5312
Q15.0469 41.3594 15.0469 38.2812
Q15.0469 33.6406 15.9688 30.0781
Q16.8906 26.5156 18.5 24.125
Q20.125 21.7344 22.3125 20.5
Q24.5156 19.2812 27.0938 19.2812
Q28.6562 19.2812 30.1406 19.5469
Q31.6406 19.8281 32.9375 20.2344
Q34.2344 20.6562 35.25 21.1719
Q36.2812 21.6875 36.9219 22.2188
L39.0625 18.3594
Q38.1406 17.2812 36.625 16.2969
Q35.1094 15.3281 33.2031 14.5625
Q31.2969 13.8125 29.0938 13.375
Q26.9062 12.9375 24.5625 12.9375
Q19.875 12.9375 16.375 14.8438
Q12.8906 16.75 10.5625 19.7656
Q8.25 22.7969 7.09375 26.625
Q5.95312 30.4688 5.95312 34.3281
Q5.95312 37.4531 6.6875 40.6719
Q7.42188 43.8906 8.89062 46.875
Q10.3594 49.8594 12.4688 52.4688
Q14.5938 55.0781 17.3594 57.0312
Q20.125 58.9844 23.5156 60.1094
Q26.9062 61.2344 30.8594 61.2344
Q36.6719 61.2344 41.1406 58.9062
Q45.6094 56.5938 48.6094 52.6562
Q51.6094 48.7344 53.1406 43.5781
Q54.6875 38.4219 54.6875 32.7188
Q54.6875 26.0781 53 19.8438
Q51.3125 13.625 48.3594 8.10938
Q45.4062 2.59375 41.4531 -2.125
Q37.5 -6.84375 32.9062 -10.4531
Q28.3281 -14.0625 23.3438 -16.4531
Q18.3594 -18.8438 13.4219 -19.7812
z
" id="Merriweather-39"/>
      </defs>
      <g style="fill:#555555;" transform="translate(106.4659375 40.89515625)scale(0.18 -0.18)">
       <use xlink:href="#Merriweather-39"/>
       <use x="61.5234375" xlink:href="#Merriweather-30"/>
      </g>
     </g>
    </g>
    <g id="text_11">
     <!-- Time (minutes) -->
     <defs>
      <path d="
M6.73438 4.15625
L13.375 5.21875
L13.375 44.9219
L6.45312 48.7344
L6.45312 51.7656
L19.4375 55.6094
L21.625 54.6406
L21.625 47.6562
Q23.25 49.0781 25.5312 50.4688
Q27.8281 51.8594 30.4375 52.9844
Q33.0625 54.1094 35.7969 54.8125
Q38.5312 55.5156 41.0156 55.6094
Q46.2969 55.8125 49.5312 54.2188
Q52.7812 52.6406 54.5938 48.6875
Q56.3438 50 58.7344 51.2188
Q61.1406 52.4375 63.7656 53.3906
Q66.4062 54.3438 69.0938 54.9219
Q71.7812 55.5156 74.125 55.6094
Q78.6562 55.7656 81.7812 54.4844
Q84.9062 53.2188 86.8125 50.3906
Q88.7188 47.5625 89.5469 43.0625
Q90.375 38.5781 90.375 32.2812
L90.375 5.17188
L98.6406 4.15625
L98.6406 0
L74.3594 0
L74.3594 4.15625
L81 5.17188
L81 30.5625
Q81 35.25 80.5625 38.6875
Q80.125 42.1406 78.8281 44.3594
Q77.5469 46.5781 75.25 47.6094
Q72.9531 48.6406 69.2344 48.4844
Q65.9219 48.3438 62.6406 47.2344
Q59.375 46.1406 56.2031 44.3438
Q56.7344 42 57.0312 38.9844
Q57.3281 35.9844 57.3281 32.7656
L57.3281 5.125
L64.7969 4.15625
L64.7969 0
L40.625 0
L40.625 4.15625
L47.9531 5.21875
L47.9531 31.3438
Q47.9531 35.9844 47.4844 39.2969
Q47.0156 42.625 45.7031 44.7188
Q44.3906 46.8281 42.0625 47.7344
Q39.75 48.6406 36.0312 48.4844
Q33.4062 48.3438 30 47.1406
Q26.6094 45.9531 22.9062 43.4062
L22.9062 34.4688
Q22.9062 27.0938 22.8438 19.8125
Q22.7969 12.5469 22.8594 5.17188
L30.125 4.15625
L30.125 0
L6.73438 0
z
" id="Merriweather-6d"/>
      <path d="
M10.4531 47.7031
L5.42188 49.1719
L5.42188 52.9375
L17.9688 55.6094
L19.6719 54.7344
L19.6719 21.0938
Q19.6719 17.0469 20.1094 14.1406
Q20.5625 11.2344 21.7344 9.34375
Q22.9062 7.46875 24.9531 6.5625
Q27 5.67188 30.2188 5.67188
Q32.4219 5.67188 34.5469 6.28125
Q36.6719 6.89062 38.5 7.73438
Q40.3281 8.59375 41.6875 9.54688
Q43.0625 10.5 43.7031 11.1875
L43.7031 47.2656
L37.5938 48.8281
L37.5938 52.8281
L51.5625 55.6094
L52.9375 54.7812
L52.9375 4.15625
L58.7969 4.15625
L58.7969 0.4375
Q58.0625 0.046875 56.9844 -0.3125
Q55.9062 -0.6875 54.6562 -0.96875
Q53.4219 -1.26562 52.125 -1.45312
Q50.8281 -1.65625 49.6562 -1.65625
Q47.3125 -1.65625 45.9688 -0.65625
Q44.625 0.34375 44.625 2.54688
L44.625 6.54688
Q40.375 2.82812 35.7188 0.890625
Q31.0625 -1.03125 26.6094 -1.03125
Q20.8438 -1.03125 17.625 0.75
Q14.4062 2.54688 12.8125 5.6875
Q11.2344 8.84375 10.8594 13.1406
Q10.5 17.4375 10.4531 22.5156
z
" id="Merriweather-75"/>
      <path id="Merriweather-20"/>
      <path d="
M4.89062 27.1562
Q4.89062 33.4062 6.85938 38.6719
Q8.84375 43.9531 12.375 47.7969
Q15.9219 51.6562 20.8906 53.875
Q25.875 56.1094 31.8906 56.25
Q36.1875 56.3438 39.6406 55
Q43.1094 53.6562 45.5469 51.0156
Q48 48.3906 49.3906 44.5781
Q50.7812 40.7656 50.9844 35.9375
Q51.0781 32.8594 50.8594 30.6094
Q50.6406 28.375 50.3906 26.6094
L14.2031 26.6094
Q14.2031 26.3125 14.2031 26.0469
Q14.2031 25.7812 14.2656 25.4844
Q14.4531 19.5781 16.25 15.7188
Q18.0625 11.8594 20.7656 9.59375
Q23.4844 7.32812 26.75 6.42188
Q30.0312 5.51562 33.1562 5.51562
Q35.0625 5.51562 37.1562 5.73438
Q39.2656 5.95312 41.2344 6.35938
Q43.2188 6.78125 44.8906 7.3125
Q46.5781 7.85938 47.6094 8.45312
L49.4219 4.29688
Q48 3.03125 45.7188 2
Q43.4531 0.984375 40.7656 0.265625
Q38.0938 -0.4375 35.1562 -0.796875
Q32.2344 -1.17188 29.4375 -1.17188
Q23.5312 -1.17188 18.9688 0.84375
Q14.4062 2.875 11.2812 6.5625
Q8.15625 10.25 6.51562 15.4688
Q4.89062 20.7031 4.89062 27.1562
M41.0156 32.375
Q41.1562 34.8594 41.0781 37.375
Q41.0156 39.8906 40.4688 42.1562
Q39.9375 44.4375 38.8438 46.3125
Q37.75 48.1875 35.8906 49.3594
Q34.625 50.2031 33 50.6094
Q31.3906 51.0312 29.3438 51.0312
Q26.6094 51.0312 24.0469 50
Q21.4844 48.9688 19.4531 46.7188
Q17.4375 44.4844 16.0625 40.9375
Q14.7031 37.4062 14.3125 32.375
z
" id="Merriweather-65"/>
      <path d="
M8.20312 14.1562
L12.5469 14.1562
L14.4531 8.20312
Q15.6719 7.17188 16.8594 6.42188
Q18.0625 5.67188 19.3125 5.17188
Q20.5625 4.6875 21.9688 4.42188
Q23.3906 4.15625 25.0938 4.10938
Q27.8281 4 30.125 4.51562
Q32.4219 5.03125 34.0781 6.17188
Q35.75 7.32812 36.6719 9.07812
Q37.5938 10.8438 37.5938 13.2812
Q37.5938 15.4844 36.3906 17.0469
Q35.2031 18.6094 33.25 19.8438
Q31.2969 21.0938 28.7969 22.1406
Q26.3125 23.1875 23.7344 24.4688
Q20.8438 25.8281 18.0781 27.4688
Q15.3281 29.1094 13.2031 31.125
Q11.0781 33.1562 9.8125 35.6875
Q8.54688 38.2344 8.59375 41.5
Q8.64062 44.0469 9.5 46.0938
Q10.3594 48.1406 11.7969 49.75
Q13.2344 51.375 15.1406 52.5625
Q17.0469 53.7656 19.1875 54.5625
Q21.3438 55.375 23.6094 55.7812
Q25.875 56.2031 28.0781 56.25
Q30.5156 56.2969 32.7812 56.0312
Q35.0625 55.7656 37.0312 55.2656
Q39.0156 54.7812 40.5938 54.1406
Q42.1875 53.5156 43.3125 52.875
L43.3125 42.4375
L39.1562 42.4375
L37.0625 47.9062
Q36.375 48.6406 35.5625 49.25
Q34.7656 49.8594 33.7656 50.3125
Q32.7656 50.7812 31.4844 51.0781
Q30.2188 51.375 28.6094 51.375
Q26.2656 51.375 24.2812 50.9062
Q22.3125 50.4375 20.8438 49.4531
Q19.3906 48.4844 18.5312 46.9219
Q17.6719 45.3594 17.625 43.1719
Q17.5312 40.9688 18.7031 39.3281
Q19.875 37.7031 21.7812 36.375
Q23.6875 35.0625 26.1406 33.9062
Q28.6094 32.7656 31.2031 31.5
Q33.8906 30.2188 36.6406 28.875
Q39.4062 27.5469 41.5938 25.7031
Q43.7969 23.875 45.1875 21.4062
Q46.5781 18.9531 46.5781 15.5312
Q46.5781 11.375 44.9219 8.25
Q43.2656 5.125 40.3594 3.01562
Q37.4531 0.921875 33.5625 -0.125
Q29.6875 -1.17188 25.25 -1.17188
Q20.7969 -1.17188 16.3594 -0.125
Q11.9219 0.921875 8.20312 2.98438
z
" id="Merriweather-73"/>
      <path d="
M6.73438 4.15625
L13.375 5.125
L13.375 44.9219
L6.45312 48.7344
L6.45312 51.7656
L19.4375 55.6094
L21.625 54.6406
L21.625 47.6562
Q23.2969 49.0781 25.6406 50.4688
Q27.9844 51.8594 30.6094 52.9844
Q33.25 54.1094 36.0312 54.8125
Q38.8125 55.5156 41.3125 55.6094
Q45.8438 55.7656 48.9219 54.5156
Q52 53.2656 53.9062 50.4531
Q55.8125 47.6562 56.6406 43.2656
Q57.4688 38.875 57.4688 32.7188
L57.4688 5.125
L65.3281 4.15625
L65.3281 0
L40.7188 0
L40.7188 4.15625
L48.0938 5.17188
L48.0938 31
Q48.0938 35.4531 47.6562 38.8125
Q47.2188 42.1875 45.9219 44.375
Q44.625 46.5781 42.3281 47.6094
Q40.0469 48.6406 36.3281 48.4844
Q33.2969 48.3438 29.9219 47.1406
Q26.5625 45.9531 22.8594 43.4062
L22.8594 5.17188
L30.125 4.15625
L30.125 0
L6.73438 0
z
" id="Merriweather-6e"/>
      <path d="
M29.1562 -15.625
Q28.0312 -14.9375 25.8281 -13.1562
Q23.6406 -11.375 21.0156 -8.42188
Q18.4062 -5.46875 15.6719 -1.29688
Q12.9375 2.875 10.6875 8.3125
Q8.45312 13.7656 7.03125 20.5312
Q5.60938 27.2969 5.60938 35.4062
Q5.60938 42.4844 7.03125 48.7344
Q8.45312 54.9844 10.6875 60.2812
Q12.9375 65.5781 15.6719 69.8438
Q18.4062 74.125 21.0156 77.25
Q23.6406 80.375 25.8281 82.2969
Q28.0312 84.2344 29.1562 84.8594
L33.4531 82.3281
Q32.4219 81.6406 30.6875 79.9062
Q28.9531 78.1719 26.9219 75.4062
Q24.9062 72.6562 22.7812 68.8906
Q20.6562 65.1406 18.9219 60.4062
Q17.1875 55.6719 15.9844 50
Q14.7969 44.3438 14.5938 37.7969
Q14.3594 30.5156 15.375 24.1875
Q16.4062 17.875 18.1875 12.5781
Q19.9688 7.28125 22.2188 3
Q24.4688 -1.26562 26.6875 -4.4375
Q28.9062 -7.625 30.875 -9.67188
Q32.8594 -11.7188 34.0781 -12.5938
z
" id="Merriweather-28"/>
      <path d="
M6.25 -12.5469
Q7.28125 -11.8594 9.01562 -10.125
Q10.75 -8.40625 12.7656 -5.64062
Q14.7969 -2.875 16.9219 0.875
Q19.0469 4.64062 20.7812 9.375
Q22.5156 14.1094 23.7031 19.75
Q24.9062 25.3906 25.0938 31.9844
Q25.3438 39.2656 24.3125 45.5781
Q23.2969 51.9062 21.5156 57.2031
Q19.7344 62.5 17.4844 66.7656
Q15.2344 71.0469 13.0156 74.2188
Q10.7969 77.3906 8.8125 79.4375
Q6.84375 81.5 5.60938 82.375
L10.5469 85.4062
Q11.6719 84.7188 13.8594 82.9375
Q16.0625 81.1562 18.6719 78.2031
Q21.2969 75.25 24.0312 71.0625
Q26.7656 66.8906 29 61.4375
Q31.25 56 32.6562 49.2344
Q34.0781 42.4844 34.0781 34.375
Q34.0781 27.2969 32.6562 21.0469
Q31.25 14.7969 29 9.5
Q26.7656 4.20312 24.0312 -0.0625
Q21.2969 -4.34375 18.6719 -7.46875
Q16.0625 -10.5938 13.8594 -12.5156
Q11.6719 -14.4531 10.5469 -15.0938
z
" id="Merriweather-29"/>
      <path d="
M16.2656 67.1406
Q15.0938 67.1406 13.9688 67.5469
Q12.8438 67.9688 11.9844 68.7188
Q11.1406 69.4844 10.625 70.6094
Q10.1094 71.7344 10.1094 73.1406
Q10.1094 74.6562 10.7656 75.9688
Q11.4219 77.2969 12.4531 78.25
Q13.4844 79.2031 14.7656 79.7344
Q16.0625 80.2812 17.3906 80.2812
Q20.6094 80.2812 22.0938 78.4844
Q23.5781 76.7031 23.5781 74.2188
Q23.5781 72.6094 22.9375 71.2812
Q22.3125 69.9688 21.2812 69.0625
Q20.2656 68.1719 18.9375 67.6562
Q17.625 67.1406 16.2656 67.1406
M5.46875 4.15625
L13.7656 5.17188
L13.7656 45.1719
L7.03125 48.7344
L7.03125 51.7656
L20.5625 55.6094
L22.75 54.6406
L22.75 5.17188
L30.6719 4.15625
L30.6719 0
L5.46875 0
z
" id="Merriweather-69"/>
      <path d="
M15.0938 4.15625
L27.0469 5.60938
L27.0469 70.4062
L9.32812 69.4375
L5.90625 61.0781
L1.46875 60.9844
L2.6875 75.8281
L60.8438 75.8281
L60.75 60.8438
L56.7344 60.4062
L54.2031 69.4844
L36.5781 70.4062
L36.5781 5.60938
L49.3125 4.15625
L49.3125 0
L15.0938 0
z
" id="Merriweather-54"/>
      <path d="
M12.8906 12.7969
Q12.8906 21.7812 12.9062 30.6406
Q12.9375 39.5 12.9375 48.4844
L5.46875 48.4844
L5.46875 52.1562
Q7.625 52.6875 9.0625 53
Q10.5 53.3281 11.4531 53.7344
Q12.4062 54.1562 13.0312 54.7812
Q13.6719 55.4219 14.2031 56.6406
Q14.5469 57.4688 15.0625 59.0781
Q15.5781 60.6875 16.0312 62.375
Q16.5 64.0625 16.8438 65.5469
Q17.1875 67.0469 17.2812 67.6719
L22.125 67.6719
L22.125 54.6406
L38.5312 54.6406
L38.5312 48.4844
L22.125 48.4844
L22.125 23.875
Q22.125 18.2188 22.2656 14.6719
Q22.4062 11.1406 22.9844 9.125
Q23.5781 7.125 24.7031 6.42188
Q25.8281 5.71875 27.8281 5.71875
Q29.0469 5.71875 30.5312 5.95312
Q32.0312 6.20312 33.4219 6.54688
Q34.8125 6.89062 35.9844 7.29688
Q37.1562 7.71875 37.75 8.10938
L39.2656 3.8125
Q38.1406 2.59375 36.2812 1.65625
Q34.4219 0.734375 32.25 0.09375
Q30.0781 -0.53125 27.9062 -0.84375
Q25.7344 -1.17188 24.0781 -1.17188
Q18.75 -1.17188 15.8125 2.09375
Q12.8906 5.375 12.8906 12.7969" id="Merriweather-74"/>
     </defs>
     <g style="fill:#555555;" transform="translate(95.7245 262.7836875)rotate(-90.0)scale(0.21599999999999997 -0.21599999999999997)">
      <use xlink:href="#Merriweather-54"/>
      <use x="62.01171875" xlink:href="#Merriweather-69"/>
      <use x="95.361328125" xlink:href="#Merriweather-6d"/>
      <use x="196.435546875" xlink:href="#Merriweather-65"/>
      <use x="252.34375" xlink:href="#Merriweather-20"/>
      <use x="277.880859375" xlink:href="#Merriweather-28"/>
      <use x="317.578125" xlink:href="#Merriweather-6d"/>
      <use x="418.65234375" xlink:href="#Merriweather-69"/>
      <use x="452.001953125" xlink:href="#Merriweather-6e"/>
      <use x="520.166015625" xlink:href="#Merriweather-75"/>
      <use x="583.251953125" xlink:href="#Merriweather-74"/>
      <use x="625.341796875" xlink:href="#Merriweather-65"/>
      <use x="681.25" xlink:href="#Merriweather-73"/>
      <use x="732.421875" xlink:href="#Merriweather-29"/>
     </g>
    </g>
   </g>
   <g id="line2d_43">
    <path clip-path="url(#pe24c60e319)" d="
M135 324
L136.395 320.571
L139.185 304.381
L140.58 298.115
L141.975 292.689
L143.37 284.788
L144.765 282.171
L146.16 278.328
L147.555 272.779
L150.345 256.29
L151.74 247.084
L153.135 239.316
L154.53 228.067
L155.925 225.025
L157.32 216.515
L158.715 219.722
L160.11 220.004
L161.505 222.152
L162.9 215.062
L164.295 205.385
L168.48 172.978
L169.875 164.443
L171.27 149.976
L172.665 141.641
L174.06 139.842
L175.455 136.462
L176.85 156.418
L178.245 164.784
L179.64 163.94
L181.035 163.265
L182.43 170.695
L183.825 171.599
L185.22 173.625
L186.615 176.476
L188.01 173.255
L189.405 170.537
L190.8 176.406
L192.195 168.304
L193.59 166.715
L194.985 164.014
L196.38 163.951
L197.775 156.001
L199.17 168.751
L200.565 171.473
L201.96 168.423
L203.355 160.125
L204.75 163.761
L206.145 166.609
L207.54 162.769
L208.935 160.271
L210.33 164.376
L211.725 160.398
L213.12 164.207
L214.515 176.965
L215.91 180.883
L217.305 170.38
L218.7 172.004
L220.095 162.97
L221.49 160.259
L222.885 163.473
L224.28 157.206
L225.675 161.303
L227.07 154.351
L228.465 151.58
L229.86 147.951
L231.255 151.545
L232.65 154.207
L234.045 151.422
L235.44 152.568
L236.835 153.074
L238.23 145.992
L239.625 143.126
L241.02 152.891
L243.81 143.058
L245.205 137.468
L246.6 133.343
L247.995 127.323
L249.39 122.697
L250.785 121.604
L252.18 110.258
L253.575 102.363
L254.97 99.2826
L256.365 99.1666
L257.76 100.25
L259.155 102.078
L260.55 99.1807
L261.945 92.742
L263.34 87.52
L264.735 81.8464
L266.13 79.1262
L267.525 82.3402
L268.92 92.6166
L270.315 96.3956
L271.71 126.573
L273.105 137.071
L275.895 154.731
L277.29 175.706
L278.685 192.375
L280.08 210.396
L281.475 220.872
L282.87 228.39
L284.265 233.61
M302.4 323.884
L303.795 319.474
L305.19 307.04
L306.585 297.124
L307.98 285.72
L309.375 279.189
L312.165 253.755
L316.35 215.151
L317.745 204.823
L319.14 193.581
L320.535 193.911
L321.93 187.986
L323.325 179.114
L324.72 172.12
L326.115 170.203
L327.51 160.593
L328.905 153.711
L330.3 148.102
L333.09 123.905
L334.485 117.48
L335.88 112.986
L337.275 102.302
L338.67 97.0673
L340.065 98.298
L341.46 101.158
L342.855 93.3937
L344.25 80.8281
L345.645 72.1846
L347.04 72.5322
L348.435 79.5657
L349.83 79.6747
L351.225 92.6406
L352.62 88.7695
L355.41 72.902
L356.805 67.4338
L358.2 85.2167
L359.595 108.324
L360.99 121.254
L362.385 125.313
L363.78 123.729
L365.175 125.815
L366.57 125.934
L367.965 135.267
L369.36 140.007
L370.755 142.617
L372.15 148.559
L373.545 144.976
L374.94 152.754
L376.335 162.994
L377.73 164.232
L379.125 169.391
L380.52 166.845
L381.915 167.705
L383.31 161.159
L384.705 160.702
L386.1 172.587
L387.495 173.551
L388.89 171.725
L390.285 156.124
L391.68 150.127
L393.075 137.684
L394.47 156.216
L395.865 146.759
L397.26 139.026
L398.655 135.782
L400.05 137.621
L401.445 131.641
L402.84 131.81
L404.235 124.703
L405.63 139.673
L407.025 169.564
L408.42 167.541
L409.815 166.04
L411.21 189.241
L412.605 186.91
L414 177.264
L415.395 182.05
L416.79 176.377
L418.185 168.891
L419.58 163.409
L420.975 163.599
L422.37 151.422
L423.765 146.551
L425.16 157.259
L426.555 162.379
L427.95 153.823
L429.345 153.64
L430.74 150.739
L432.135 150.814
L434.925 130.178
L436.32 136.992
L437.715 133.871
L439.11 167.91
L441.9 209.257
L443.295 221.523
L444.69 219.648
L446.085 220.956
L447.48 228.45
L448.875 236.717
L450.27 243.451
L451.665 257.194
M486.54 323.884
L487.935 320.262
L489.33 310.258
L492.12 295.971
L493.515 283.001
L494.91 273.883
L496.305 263.499
L497.7 251.107
L499.095 240.663
L500.49 227.995
L501.885 221.005
L503.28 206.519
L507.465 171.255
L508.86 157.347
L510.255 146.953
L513.045 137.725
L514.44 137.858
L515.835 133.069
L517.23 147.381
L518.625 152.058
L520.02 151.247
L521.415 142.123
L522.81 140.876
L524.205 145.004
L525.6 143.794
L526.995 142.057
L528.39 142.633
L529.785 131.702
L531.18 125.653
L532.575 124.074
L533.97 119.977
L535.365 114.101
L536.76 106.808
L539.55 88.4905
L540.945 88.1002
L542.34 98.3883
L543.735 109.586
L545.13 104.983
L546.525 108.558
L547.92 110.106
L549.315 118.539
L550.71 118.627
L552.105 119.633
L553.5 120.406
L556.29 135.323
L557.685 128.687
L559.08 119.345
L560.475 120.206
L561.87 114.618
L563.265 118.701
L564.66 119.627
L566.055 107.033
L567.45 107.413
L568.845 108.542
L570.24 107.961
L571.635 106.157
L573.03 108.106
L574.425 116.971
L575.82 121.223
L577.215 118.616
L578.61 123.29
L580.005 134.335
L581.4 129.66
L582.795 129.707
L584.19 132.454
L585.585 146.08
L586.98 146.491
L588.375 152.149
L589.77 144.051
L591.165 144.77
L592.56 170.89
L593.955 178.4
L595.35 191.003
L596.745 195.565
L598.14 202.786
L599.535 213.373
L600.93 218.461
L603.72 198.64
L605.115 206.034
L606.51 235.539
L607.905 251.87
L609.3 260.431
L610.695 266.78
L612.09 268.563
L613.485 269.572
L614.88 267.335
L616.275 268.116
L619.065 277.589
M637.2 324
L638.595 321.211
L639.99 307.04
L642.78 282.108
L644.175 270.173
L645.57 260.608
L646.965 255.552
L648.36 243.314
L649.755 237.083
L651.15 238.229
L652.545 228.475
L653.94 216.283
L655.335 220.876
L659.52 195.687
L660.915 197.369
L662.31 213.8
L663.705 211.044
L665.1 195.374
L666.495 199.862
L667.89 195.24
L669.285 194.435
L670.68 180.795
L672.075 187.271
L673.47 184.336
L674.865 176.554
L676.26 164.64
L677.655 157.322
L679.05 155.659
L680.445 153.816
L681.84 156.447
L683.235 158.025
L684.63 163.142
L686.025 166.2
L687.42 160.603
L688.815 153.837
L690.21 150.143
L691.605 165.817
L693 159.4
L694.395 150.532
L695.79 139.096
L697.185 129.689
L698.58 127.967
L699.975 124.252
L701.37 114.8
L702.765 123.951
L704.16 134.616
L705.555 143.365
L706.95 151.151
L708.345 157.424
L709.74 167.031
L711.135 169.078
L712.53 164.019
L713.925 164.315
L715.32 160.445
L716.715 164.499
L718.11 167.956
L719.505 161.946
L720.9 153.83
L722.295 150.391
L723.69 143.204
L725.085 147.518
L726.48 153.415
L727.875 151.629
L729.27 152.687
L730.665 152.676
L732.06 156.001
L733.455 159.995
L734.85 169.243
L736.245 168.719
L737.64 169.903
L739.035 162.53
L740.43 156.126
L741.825 148.316
L743.22 152.382
L744.615 146.14
L746.01 145.05
L747.405 142.852
L748.8 132.545
L750.195 124.974
L751.59 115.634
L752.985 107.145
L754.38 102.191
L755.775 113.112
L757.17 144.611
L758.565 148.964
L759.96 156.603
L761.355 165.327
L762.75 138.896
L764.145 162.047
L765.54 153.909
L766.935 144.36
L768.33 132.642
L769.725 124.659
L771.12 112.422
L772.515 174.497
L773.91 191.393
L775.305 181.22
L776.7 191.211
L778.095 191.73
L779.49 191.237
L780.885 196.396
L782.28 212.476
L783.675 219.723
L785.07 232.375
L786.465 235.426
M804.6 323.535
L805.995 317.93
L808.785 291.237
L811.575 269.428
L812.97 262.152
L814.365 253.956
L818.55 217.994
L819.945 216.075
L822.735 198.998
L824.13 190.045
L825.525 188.265
L826.92 184.945
L828.315 188.417
L831.105 179.443
L832.5 170.756
L835.29 161.617
L836.685 163.068
L838.08 156.763
L839.475 155.794
L840.87 148.885
L842.265 138.43
L843.66 138.262
L845.055 136.506
L846.45 134.373
L847.845 143.156
L849.24 141.612
L850.635 140.363
L852.03 146.351
L853.425 140.083
L854.82 151.288
L856.215 154.416
L857.61 159.318
L859.005 149.312
L860.4 153.476
L861.795 153.37
L863.19 146.913
L864.585 147.571
L865.98 145.522
L867.375 140.928
L868.77 141.301
L870.165 147.749
L871.56 141.768
L874.35 147.996
L875.745 143.149
L877.14 152.749
L878.535 154.857
L879.93 155.986
L881.325 160.06
L882.72 168.989
L884.115 166.717
L885.51 173.008
L886.905 176.772
L888.3 170.697
L889.695 161.933
L891.09 157.345
L892.485 161.24
L893.88 155.159
L895.275 154.706
L896.67 148.476
L898.065 147.661
L899.46 147.542
L900.855 140.027
L902.25 126.229
L903.645 129.007
L905.04 120.96
L906.435 126.565
L909.225 139.614
L910.62 135.877
L912.015 140.254
L913.41 135.29
L914.805 144.173
L916.2 143.662
L917.595 130.687
L918.99 121.819
L920.385 114.584
L921.78 105.312
L923.175 108.324
L924.57 101.693
L928.755 72.3847
L930.15 63.5079
L931.545 58.393
L932.94 55.1297
L934.335 62.9405
L937.125 119.044
L938.52 138.555
L939.915 152.584
L941.31 147.155
L942.705 169.27
L944.1 172.769
L945.495 194.486
L949.68 227.973
L951.075 226.981
L952.47 235.835
L953.865 236.88
L953.865 236.88" style="fill:none;stroke:#205d90;stroke-linecap:square;"/>
   </g>
   <g id="patch_3">
    <path d="
M135 324
L135 36" style="fill:none;stroke:#ffffff;stroke-linecap:square;stroke-linejoin:miter;"/>
   </g>
   <g id="patch_4">
    <path d="
M972 324
L972 36" style="fill:none;stroke:#ffffff;stroke-linecap:square;stroke-linejoin:miter;"/>
   </g>
   <g id="patch_5">
    <path d="
M135 36
L972 36" style="fill:none;stroke:#ffffff;stroke-linecap:square;stroke-linejoin:miter;"/>
   </g>
   <g id="patch_6">
    <path d="
M135 324
L972 324" style="fill:none;stroke:#ffffff;stroke-linecap:square;stroke-linejoin:miter;"/>
   </g>
   <g id="text_12">
    <!-- Monday -->
    <defs>
     <path d="
M5.03125 28.4219
Q5.125 34.9688 7.29688 40.1094
Q9.46875 45.2656 13.0312 48.8281
Q16.6094 52.3906 21.2656 54.2969
Q25.9219 56.2031 31 56.25
Q37.2031 56.2969 41.7969 54.0938
Q46.3906 51.9062 49.3906 48.0625
Q52.3906 44.2344 53.8594 39.0625
Q55.3281 33.8906 55.2812 27.9844
Q55.2188 21.4844 53.1875 16.1094
Q51.1719 10.75 47.7188 6.90625
Q44.2812 3.07812 39.6719 0.953125
Q35.0625 -1.17188 29.7812 -1.17188
Q23.0469 -1.17188 18.3125 1.26562
Q13.5781 3.71875 10.5938 7.8125
Q7.625 11.9219 6.28125 17.2656
Q4.9375 22.6094 5.03125 28.4219
M30.2188 4.29688
Q34.375 4.20312 37.2344 5.71875
Q40.0938 7.23438 41.875 10.1875
Q43.6562 13.1406 44.4531 17.5
Q45.2656 21.875 45.2656 27.5469
Q45.2656 32.4688 44.4062 36.7344
Q43.5625 41.0156 41.7188 44.1875
Q39.8906 47.3594 37.0781 49.1875
Q34.2812 51.0312 30.4219 51.125
Q26.2656 51.1719 23.3594 49.6719
Q20.4531 48.1875 18.5938 45.3125
Q16.75 42.4375 15.8906 38.2812
Q15.0469 34.125 15.0469 28.8594
Q15.0469 24.125 15.9688 19.7188
Q16.8906 15.3281 18.75 11.9375
Q20.6094 8.54688 23.4531 6.46875
Q26.3125 4.39062 30.2188 4.29688" id="Merriweather-6f"/>
     <path d="
M26.2188 -1.17188
Q22.125 -1.17188 18.2656 0.453125
Q14.4062 2.09375 11.4531 5.48438
Q8.5 8.89062 6.6875 14.0781
Q4.89062 19.2812 4.89062 26.4219
Q4.89062 32.9531 7.07812 38.4531
Q9.28125 43.9531 13.0781 47.9062
Q16.8906 51.8594 22.0469 54.0781
Q27.2031 56.2969 33.1094 56.2969
Q35.6875 56.2969 38.125 55.9531
Q40.5781 55.6094 42.3281 55.0312
L42.3281 71.2969
L31.9375 73.0469
L31.9375 77.2969
L49.5156 79.3438
L51.7031 78.2188
L51.7031 4.15625
L58.2969 4.15625
L58.2969 0.484375
Q57.4688 0.046875 56.2188 -0.34375
Q54.9844 -0.734375 53.5938 -1.01562
Q52.2031 -1.3125 50.75 -1.45312
Q49.3125 -1.60938 48.0469 -1.60938
Q47.1719 -1.60938 46.2188 -1.48438
Q45.2656 -1.375 44.4844 -0.875
Q43.7031 -0.390625 43.1875 0.625
Q42.6719 1.65625 42.6719 3.46875
L42.6719 4.6875
Q41.9375 3.85938 40.5156 2.82812
Q39.1094 1.8125 37 0.921875
Q34.9062 0.046875 32.2031 -0.5625
Q29.5 -1.17188 26.2188 -1.17188
M29.9844 5.51562
Q31.5469 5.51562 32.8906 5.6875
Q34.2344 5.85938 35.4062 6.15625
Q37.7969 6.73438 39.5 7.70312
Q41.2188 8.6875 42.3281 9.8125
L42.3281 47.1719
Q41.7969 47.7969 41.0156 48.4844
Q40.2344 49.1719 38.9844 49.75
Q37.75 50.3438 36.0156 50.7031
Q34.2812 51.0781 31.9375 51.0781
Q30.0781 51.0781 28.0781 50.6094
Q26.0781 50.1406 24.125 49.0625
Q22.1719 48 20.4062 46.2812
Q18.6562 44.5781 17.2812 42.1094
Q15.9219 39.6562 15.0938 36.3594
Q14.2656 33.0625 14.2031 28.8125
Q14.1094 22.7969 15.4219 18.4062
Q16.75 14.0156 18.9688 11.1562
Q21.1875 8.29688 24.0625 6.90625
Q26.9531 5.51562 29.9844 5.51562" id="Merriweather-64"/>
     <path d="
M3.76562 4.15625
L12.1562 5.5625
L17.0469 69.6719
L7.51562 70.5156
L7.51562 75.8281
L30.0312 75.8281
L47.6094 22.6094
L49.8594 15.4375
L52.0938 22.7969
L68.8906 75.8281
L89.6562 75.8281
L89.6562 70.5156
L80.5156 69.6719
L86.0312 5.60938
L94.4375 4.15625
L94.4375 0
L69.0469 0
L69.0469 4.15625
L77.0469 5.5625
L73.0469 51.2656
L72.5625 68.1719
L70.5625 60.2031
L50 -0.734375
L46.7344 -0.734375
L27.9844 52.6875
Q26.5625 56.6406 25.2344 60.6406
Q23.9219 64.6562 22.5625 68.6562
L22.1719 51.9531
L19.7812 5.60938
L29.0469 4.15625
L29.0469 0
L3.76562 0
z
" id="Merriweather-4d"/>
     <path d="
M5.76562 15.7188
Q6.10938 19.1406 7.95312 21.7031
Q9.8125 24.2656 12.5469 26.125
Q15.2812 27.9844 18.625 29.2031
Q21.9688 30.4219 25.3438 31.1562
Q28.7188 31.8906 31.8438 32.1719
Q34.9688 32.4688 37.25 32.4688
L37.25 36.7188
Q37.25 40.5781 36.2188 42.9844
Q35.2031 45.4062 33.3906 46.7656
Q31.5938 48.1406 29.1406 48.625
Q26.7031 49.125 23.875 49.125
Q22.4688 49.125 20.7031 48.8438
Q18.9531 48.5781 17.0625 48.0938
Q15.1875 47.6094 13.2812 46.9219
Q11.375 46.2344 9.67188 45.4062
L7.85938 49.8125
Q9.67188 51.2656 12.2812 52.3594
Q14.8906 53.4688 17.6406 54.2031
Q20.4062 54.9375 23.0156 55.2656
Q25.6406 55.6094 27.4844 55.6094
Q31.3438 55.6094 34.8281 54.7969
Q38.3281 54 40.9688 51.9688
Q43.6094 49.9531 45.1406 46.5
Q46.6875 43.0625 46.6875 37.75
L46.5781 4.15625
L52.8281 4.15625
L52.8281 0.921875
Q51.125 0 48.6094 -0.578125
Q46.0938 -1.17188 43.5625 -1.17188
Q42.6719 -1.17188 41.6406 -1.04688
Q40.625 -0.921875 39.7656 -0.4375
Q38.9219 0.046875 38.3594 1.0625
Q37.7969 2.09375 37.7969 3.90625
L37.7969 5.28125
Q36.6719 3.90625 35.125 2.73438
Q33.5938 1.5625 31.6094 0.671875
Q29.6406 -0.203125 27.125 -0.6875
Q24.6094 -1.17188 21.5312 -1.17188
Q17.7188 -1.17188 14.625 0.1875
Q11.5312 1.5625 9.45312 3.875
Q7.375 6.20312 6.375 9.25
Q5.375 12.3125 5.76562 15.7188
M15.2344 15.5312
Q15.2344 12.6406 16.0156 10.6406
Q16.7969 8.64062 18.2812 7.39062
Q19.7812 6.15625 21.9219 5.59375
Q24.0781 5.03125 26.7656 5.03125
Q28.2188 5.03125 29.7344 5.42188
Q31.25 5.8125 32.6406 6.39062
Q34.0312 6.98438 35.2188 7.73438
Q36.4219 8.5 37.1562 9.23438
Q37.1562 13.8125 37.1719 18.3281
Q37.2031 22.8594 37.25 27.4375
Q35.2031 27.4375 32.7656 27.2188
Q30.3281 27 27.875 26.4531
Q25.4375 25.9219 23.1406 25.0469
Q20.8438 24.1719 19.0781 22.8281
Q17.3281 21.4844 16.2812 19.6719
Q15.2344 17.875 15.2344 15.5312" id="Merriweather-61"/>
     <path d="
M7.32812 -16.5469
Q8.15625 -16.7969 9.25 -16.9375
Q10.3594 -17.0938 11.2344 -17.0938
Q12.9844 -17.0938 15.0312 -16.4531
Q17.0938 -15.8281 19.1875 -13.9844
Q21.2969 -12.1562 23.2656 -8.78125
Q25.25 -5.42188 26.8594 0
L24.75 0
L5.17188 48.5781
L0.09375 49.4688
L0.09375 54.6406
L22.7031 54.6406
L22.7031 49.4688
L15.6719 48.4844
L27.1562 15.7188
L30.4219 5.76562
L33.25 15.7188
L43.1719 48.6406
L35.5469 49.4688
L35.5469 54.6406
L56.6406 54.6406
L56.6406 49.4688
L51.1719 48.6875
Q47.9062 39.2031 45.4375 32.0312
Q42.9688 24.8594 41.1406 19.5781
Q39.3125 14.3125 38.0156 10.6406
Q36.7188 6.98438 35.8438 4.53125
Q34.9688 2.09375 34.4219 0.609375
Q33.8906 -0.875 33.5 -1.85938
Q31.5938 -6.73438 29.6562 -10.6406
Q27.7344 -14.5469 25.5781 -17.4062
Q23.4375 -20.2656 20.9688 -22.0938
Q18.5 -23.9219 15.4844 -24.6562
Q13.5312 -25.1406 11.1875 -25.1406
Q10.6875 -25.1406 10.0938 -25.0938
Q9.51562 -25.0469 8.95312 -24.9531
Q8.40625 -24.8594 7.95312 -24.7031
Q7.51562 -24.5625 7.32812 -24.4219
z
" id="Merriweather-79"/>
    </defs>
    <g transform="translate(194.985 343.2)scale(0.12 -0.12)">
     <use xlink:href="#Merriweather-4d"/>
     <use x="96.533203125" xlink:href="#Merriweather-6f"/>
     <use x="156.640625" xlink:href="#Merriweather-6e"/>
     <use x="224.8046875" xlink:href="#Merriweather-64"/>
     <use x="286.767578125" xlink:href="#Merriweather-61"/>
     <use x="342.67578125" xlink:href="#Merriweather-79"/>
    </g>
   </g>
   <g id="text_13">
    <!-- Tuesday -->
    <g transform="translate(358.2 343.2)scale(0.12 -0.12)">
     <use xlink:href="#Merriweather-54"/>
     <use x="62.01171875" xlink:href="#Merriweather-75"/>
     <use x="125.09765625" xlink:href="#Merriweather-65"/>
     <use x="181.005859375" xlink:href="#Merriweather-73"/>
     <use x="232.177734375" xlink:href="#Merriweather-64"/>
     <use x="294.140625" xlink:href="#Merriweather-61"/>
     <use x="350.048828125" xlink:href="#Merriweather-79"/>
    </g>
   </g>
   <g id="text_14">
    <!-- Wednesday -->
    <defs>
     <path d="
M6.59375 70.2188
L0.25 71
L0.25 75.8281
L26.375 75.8281
L26.375 71
L17.1406 70.1719
L32.4219 19.9219
Q33.1562 17.5312 33.8906 15.1875
Q34.625 12.8438 35.4062 10.4531
L38.4219 19.3438
L48.7812 61.4219
L46.0469 70.2188
L38.1406 71
L38.1406 75.8281
L64.75 75.8281
L64.75 71
L56.25 70.2188
L69.5312 18.9531
L71.9219 9.625
L74.4219 20.7969
L87.1562 70.2188
L78.7188 71
L78.7188 75.8281
L102.344 75.8281
L102.344 71
L95.125 70.2188
L74.2656 -0.984375
L66.4062 -0.984375
L52.3906 48.5781
L38.5312 -0.984375
L30.5156 -0.984375
z
" id="Merriweather-57"/>
    </defs>
    <g transform="translate(518.625 343.2)scale(0.12 -0.12)">
     <use xlink:href="#Merriweather-57"/>
     <use x="102.587890625" xlink:href="#Merriweather-65"/>
     <use x="158.49609375" xlink:href="#Merriweather-64"/>
     <use x="220.458984375" xlink:href="#Merriweather-6e"/>
     <use x="288.623046875" xlink:href="#Merriweather-65"/>
     <use x="344.53125" xlink:href="#Merriweather-73"/>
     <use x="395.703125" xlink:href="#Merriweather-64"/>
     <use x="457.666015625" xlink:href="#Merriweather-61"/>
     <use x="513.57421875" xlink:href="#Merriweather-79"/>
    </g>
   </g>
   <g id="text_15">
    <!-- Thursday -->
    <defs>
     <path d="
M5.46875 4.15625
L13.375 5.17188
L13.375 44.9219
L6.45312 48.7344
L6.45312 51.7656
L19.3438 55.6094
L21.625 54.6406
L21.625 47.125
Q22.5625 48.4844 24.4375 50
Q26.3125 51.5156 28.6562 52.75
Q31 54 33.5312 54.7969
Q36.0781 55.6094 38.3281 55.6094
Q39.9375 55.6094 41.2344 55.5312
Q42.5312 55.4688 43.0625 55.2812
L43.0625 45.2656
Q42.2812 45.5625 41.4531 45.875
Q40.625 46.1875 39.625 46.4062
Q38.625 46.625 37.3438 46.7656
Q36.0781 46.9219 34.4219 46.9219
Q30.4688 46.9219 27.7812 45.9219
Q25.0938 44.9219 22.8594 43.5
L22.8594 5.32812
L36.7656 4.15625
L36.7656 0
L5.46875 0
z
" id="Merriweather-72"/>
     <path d="
M6.0625 4.15625
L13.375 5.17188
L13.375 71.2969
L5.03125 73.0469
L5.03125 77.2969
L20.4531 79.3438
L22.75 78.2188
L22.6562 56.6406
L22.5156 48.1875
Q24.6562 49.9531 27.1719 51.3125
Q29.6875 52.6875 32.2188 53.6406
Q34.7656 54.5938 37.1719 55.0938
Q39.5938 55.6094 41.5469 55.6094
Q46.5312 55.6094 49.7031 54.0938
Q52.875 52.5938 54.7031 49.4375
Q56.5469 46.2969 57.2188 41.3594
Q57.9062 36.4219 57.8594 29.6406
L57.8594 5.17188
L65.1875 4.15625
L65.1875 0
L40.2812 0
L40.2812 4.15625
L48.4844 5.17188
L48.4844 25.4844
Q48.4844 31.1562 48.2188 35.4531
Q47.9531 39.75 46.7969 42.6562
Q45.6562 45.5625 43.3594 47.0156
Q41.0625 48.4844 37.0156 48.4844
Q35.4062 48.4844 33.5938 48.2812
Q31.7812 48.0938 29.9531 47.625
Q28.125 47.1719 26.2969 46.3906
Q24.4688 45.6094 22.75 44.3906
L22.75 5.17188
L29.9375 4.15625
L29.9375 0
L6.0625 0
z
" id="Merriweather-68"/>
    </defs>
    <g transform="translate(679.05 343.2)scale(0.12 -0.12)">
     <use xlink:href="#Merriweather-54"/>
     <use x="62.01171875" xlink:href="#Merriweather-68"/>
     <use x="130.56640625" xlink:href="#Merriweather-75"/>
     <use x="193.65234375" xlink:href="#Merriweather-72"/>
     <use x="238.720703125" xlink:href="#Merriweather-73"/>
     <use x="289.892578125" xlink:href="#Merriweather-64"/>
     <use x="351.85546875" xlink:href="#Merriweather-61"/>
     <use x="407.763671875" xlink:href="#Merriweather-79"/>
    </g>
   </g>
   <g id="text_16">
    <!-- Friday -->
    <defs>
     <path d="
M5.07812 4.15625
L13.4219 5.5625
L13.4219 70.2188
L5.375 71.0469
L5.375 75.8281
L57.8125 75.8281
L58.7344 61.9219
L53.8594 61.8125
L51.6094 69.7812
L22.9062 70.4531
L22.9062 41.3594
L44.3906 41.7969
L46.3438 48.875
L51.125 48.875
L51.125 28.375
L45.7031 28.375
L44.4375 35.75
L22.9062 36.1406
L22.9062 5.60938
L37.0156 4.64062
L37.0156 0
L5.07812 0
z
" id="Merriweather-46"/>
    </defs>
    <g transform="translate(867.375 343.2)scale(0.12 -0.12)">
     <use xlink:href="#Merriweather-46"/>
     <use x="60.44921875" xlink:href="#Merriweather-72"/>
     <use x="105.517578125" xlink:href="#Merriweather-69"/>
     <use x="138.8671875" xlink:href="#Merriweather-64"/>
     <use x="200.830078125" xlink:href="#Merriweather-61"/>
     <use x="256.73828125" xlink:href="#Merriweather-79"/>
    </g>
   </g>
   <g id="text_17">
    <!-- Averaged Non-Appointment Wait Times for Lodi -->
    <defs>
     <path d="
M5.17188 4.15625
L13.4219 5.60938
L13.4219 69.6719
L5.375 70.5156
L5.375 75.8281
L31.6406 75.8281
L31.6406 70.5156
L23 69.6719
L22.9062 5.46875
L49.0312 6.64062
L55.0312 18.2656
L59.2812 16.1562
L56.1094 0
L5.17188 0
z
" id="Merriweather-4c"/>
     <path d="
M12.8906 -19.7344
L12.8906 44.9219
L5.95312 48.7344
L5.95312 51.7656
L18.8906 55.6094
L21.1406 54.5938
L21.1406 48.9219
Q22.1719 50.0938 23.8438 51.3906
Q25.5312 52.6875 27.7344 53.75
Q29.9375 54.8281 32.6094 55.5312
Q35.2969 56.25 38.3281 56.25
Q42.4375 56.25 46.2812 54.8125
Q50.1406 53.375 53.1406 50.1406
Q56.1562 46.9219 57.9531 41.7188
Q59.7656 36.5312 59.7656 29.0469
Q59.7656 22.7969 57.7344 17.2969
Q55.7188 11.8125 52.0312 7.70312
Q48.3438 3.60938 43.2188 1.23438
Q38.0938 -1.125 31.9375 -1.125
Q29.2031 -1.125 26.75 -0.65625
Q24.3125 -0.203125 21.9688 0.4375
L22.2656 -12.7031
L22.2656 -19.7812
L31.8438 -20.7969
L31.8438 -24.9531
L6.0625 -24.9531
L6.0625 -20.7969
z

M22.2656 8.29688
Q23.3906 6.34375 26.0938 5.17188
Q28.8125 4 33.0625 4
Q36.2344 4 39.3125 5.29688
Q42.3906 6.59375 44.8281 9.45312
Q47.2656 12.3125 48.7969 16.8281
Q50.3438 21.3438 50.4375 27.7812
Q50.5312 33.9375 49.1875 38.1562
Q47.8594 42.3906 45.5781 45.0156
Q43.3125 47.6562 40.4062 48.7969
Q37.5 49.9531 34.4219 49.9531
Q32.0781 49.9531 30.2031 49.4062
Q28.3281 48.875 26.8125 48.0938
Q25.2969 47.3125 24.1406 46.4375
Q23 45.5625 22.2188 44.875
L22.2656 25.875
z
" id="Merriweather-70"/>
     <path d="
M6.20312 -11.375
Q6.20312 -9.125 7 -7.07812
Q7.8125 -5.03125 9.03125 -3.3125
Q10.25 -1.60938 11.6875 -0.265625
Q13.1406 1.07812 14.4531 1.90625
Q12.25 2.6875 11.125 3.70312
Q10.0156 4.73438 9.54688 5.85938
Q9.07812 6.98438 9.03125 8.15625
Q8.98438 9.32812 8.98438 10.3594
Q8.98438 11.2344 9.375 12.6406
Q9.76562 14.0625 10.5156 15.6719
Q11.2812 17.2812 12.4219 18.9375
Q13.5781 20.6094 15.0469 21.9219
Q11.375 24.125 9.25 27.8125
Q7.125 31.5 7.125 36.8125
Q7.125 41.8438 9.04688 45.5469
Q10.9844 49.2656 14.125 51.7031
Q17.2812 54.1562 21.2812 55.375
Q25.2969 56.5938 29.3906 56.6875
Q33.5469 56.7812 37.1875 55.8281
Q40.8281 54.8906 43.6094 52.7812
Q44.5781 53.9062 46.4531 54.6094
Q48.3438 55.3281 51.4688 55.3281
L57.375 55.3281
L57.375 47.9531
L47.7969 47.9531
Q48.8281 46.0938 49.3906 43.75
Q49.9531 41.4062 49.9531 38.625
Q49.9531 33.7969 48.1719 30.0469
Q46.3906 26.3125 43.375 23.7656
Q40.375 21.2344 36.4375 19.9219
Q32.5156 18.6094 28.2188 18.6094
Q22.4688 18.6094 17.9219 20.4062
Q17.625 19.625 17.5 18.7188
Q17.3906 17.8281 17.3594 16.9688
Q17.3281 16.1094 17.3594 15.3438
Q17.3906 14.5938 17.3906 14.1094
Q17.3906 11.4688 18.7812 10
Q20.1719 8.54688 23.6406 8.25
Q25.8281 8.0625 28.9062 8.03125
Q31.9844 8.01562 36.2344 8.01562
Q40.7656 8.01562 43.9844 7.29688
Q47.2188 6.59375 49.3438 5.42188
Q51.4688 4.25 52.6875 2.6875
Q53.9062 1.125 54.5312 -0.578125
Q55.1719 -2.29688 55.3125 -4.03125
Q55.4688 -5.76562 55.4688 -7.32812
Q55.4688 -11.5312 53.7031 -14.9375
Q51.9531 -18.3594 48.6562 -20.7969
Q45.3594 -23.25 40.5938 -24.5781
Q35.8438 -25.9219 29.7812 -25.9219
Q25.3906 -25.9219 21.1562 -25.2344
Q16.9375 -24.5625 13.6094 -22.875
Q10.2969 -21.1875 8.25 -18.375
Q6.20312 -15.5781 6.20312 -11.375
M29.6406 23.8281
Q32.6719 23.8281 34.7656 24.6562
Q36.8594 25.4844 38.1562 27.1719
Q39.4531 28.8594 40.0312 31.375
Q40.625 33.8906 40.625 37.25
Q40.625 44.5312 37.5 48.0469
Q34.375 51.5625 28.125 51.5625
Q25.6875 51.5625 23.5625 50.9219
Q21.4375 50.2969 19.8438 48.7969
Q18.2656 47.3125 17.3594 44.8438
Q16.4531 42.3906 16.4531 38.6719
Q16.4531 35.6406 17.1875 32.9219
Q17.9219 30.2188 19.5 28.1875
Q21.0938 26.1719 23.6094 25
Q26.125 23.8281 29.6406 23.8281
M15.2812 -8.25
Q15.2812 -11.5781 16.5469 -13.8906
Q17.8281 -16.2188 19.9688 -17.6562
Q22.125 -19.0938 24.9531 -19.75
Q27.7812 -20.4062 30.9531 -20.4062
Q34.9062 -20.4062 38.0625 -19.75
Q41.2188 -19.0938 43.4062 -17.7656
Q45.6094 -16.4531 46.7812 -14.4219
Q47.9531 -12.4062 47.9531 -9.67188
Q47.9531 -7.32812 47.4062 -5.48438
Q46.875 -3.65625 45.3125 -2.39062
Q43.75 -1.125 40.9375 -0.453125
Q38.1406 0.203125 33.5938 0.203125
L27.4375 0.296875
Q24.5625 0.296875 22.2812 0.46875
Q20.0156 0.640625 18.2188 0.921875
Q17.625 0.25 17.1094 -0.609375
Q16.6094 -1.46875 16.1875 -2.5625
Q15.7656 -3.65625 15.5156 -5.04688
Q15.2812 -6.45312 15.2812 -8.25" id="Merriweather-67"/>
     <path d="
M8.6875 42.6719
L51.9062 42.6719
L51.9062 35.5
L8.6875 35.5
z
" id="Merriweather-2d"/>
     <path d="
M4.82812 48.5781
L0.09375 49.5156
L0.09375 54.6406
L21.5781 54.6406
L21.5781 49.5156
L15.5781 48.4844
L26.2656 22.4062
L30.8594 8.45312
L35.3594 21.8281
L44.6719 48.4844
L38.4219 49.4688
L38.4219 54.6406
L57.9062 54.6406
L57.9062 49.5156
L52.7344 48.4375
L32.8594 -1.17188
L26.2656 -1.17188
z
" id="Merriweather-76"/>
     <path d="
M0.09375 4.15625
L7.07812 5.5625
L32.5156 75.8281
L40.7188 75.8281
L65.0469 5.60938
L72.7969 4.15625
L72.7969 0
L47.0156 0
L47.0156 4.15625
L55.125 5.60938
L49.8594 21.3438
L20.5625 21.3438
L15.2812 5.60938
L23.4375 4.15625
L23.4375 0
L0.09375 0
z

M47.9531 27.0469
L39.9844 50.875
L35.3594 65.5781
L22.4688 27.0469
z
" id="Merriweather-41"/>
     <path d="
M5.375 4.15625
L15.1875 5.21875
L15.1875 48.0469
L4.4375 48.0469
L4.4375 51.7656
L15.1875 54.6406
L15.1875 58.6875
Q15.1875 62.3125 16.0938 65.5
Q17 68.7031 18.5312 71.3281
Q20.0625 73.9688 22.0938 76.0469
Q24.125 78.125 26.3438 79.5312
Q28.5625 80.9531 30.8594 81.7031
Q33.1562 82.4688 35.2031 82.4688
Q38.5312 82.4688 40.0938 82.1719
Q41.6562 81.8906 42.1875 81.6406
L42.1875 73.3438
Q41.5 73.7344 39.125 74.2969
Q36.7656 74.8594 33.25 74.8594
Q31.25 74.8594 29.6562 74.5156
Q28.0781 74.1719 26.9219 72.9219
Q25.7812 71.6875 25.1719 69.2656
Q24.5625 66.8438 24.5625 62.7031
L24.5625 54.6406
L39.3125 54.6406
L39.3125 48.0469
L24.5625 48.0469
L24.5625 5.125
L35.7969 4.15625
L35.7969 0
L5.375 0
z
" id="Merriweather-66"/>
     <path d="
M5.07812 4.15625
L13.4219 5.60938
L13.4219 69.6719
L5.375 70.5156
L5.375 75.8281
L22.7031 75.8281
L55.375 22.3594
L62.3125 8.98438
L62.3125 69.7344
L54.2969 70.5625
L54.2969 75.8281
L77.3906 75.8281
L77.3906 70.5625
L69.2812 69.7344
L69.2812 0
L59.2812 0
L27.0469 50.7812
L20.4062 64.3594
L20.4062 5.60938
L29.8906 4.15625
L29.8906 0
L5.07812 0
z
" id="Merriweather-4e"/>
    </defs>
    <g transform="translate(334.5946875 31.0)scale(0.18 -0.18)">
     <use xlink:href="#Merriweather-41"/>
     <use x="72.900390625" xlink:href="#Merriweather-76"/>
     <use x="130.908203125" xlink:href="#Merriweather-65"/>
     <use x="186.81640625" xlink:href="#Merriweather-72"/>
     <use x="231.884765625" xlink:href="#Merriweather-61"/>
     <use x="287.79296875" xlink:href="#Merriweather-67"/>
     <use x="346.533203125" xlink:href="#Merriweather-65"/>
     <use x="402.44140625" xlink:href="#Merriweather-64"/>
     <use x="464.404296875" xlink:href="#Merriweather-20"/>
     <use x="489.94140625" xlink:href="#Merriweather-4e"/>
     <use x="571.09375" xlink:href="#Merriweather-6f"/>
     <use x="631.201171875" xlink:href="#Merriweather-6e"/>
     <use x="699.365234375" xlink:href="#Merriweather-2d"/>
     <use x="759.9609375" xlink:href="#Merriweather-41"/>
     <use x="832.861328125" xlink:href="#Merriweather-70"/>
     <use x="897.509765625" xlink:href="#Merriweather-70"/>
     <use x="962.158203125" xlink:href="#Merriweather-6f"/>
     <use x="1022.265625" xlink:href="#Merriweather-69"/>
     <use x="1055.615234375" xlink:href="#Merriweather-6e"/>
     <use x="1123.779296875" xlink:href="#Merriweather-74"/>
     <use x="1165.869140625" xlink:href="#Merriweather-6d"/>
     <use x="1266.943359375" xlink:href="#Merriweather-65"/>
     <use x="1322.8515625" xlink:href="#Merriweather-6e"/>
     <use x="1391.015625" xlink:href="#Merriweather-74"/>
     <use x="1433.10546875" xlink:href="#Merriweather-20"/>
     <use x="1458.642578125" xlink:href="#Merriweather-57"/>
     <use x="1561.23046875" xlink:href="#Merriweather-61"/>
     <use x="1617.138671875" xlink:href="#Merriweather-69"/>
     <use x="1650.48828125" xlink:href="#Merriweather-74"/>
     <use x="1692.578125" xlink:href="#Merriweather-20"/>
     <use x="1718.115234375" xlink:href="#Merriweather-54"/>
     <use x="1780.126953125" xlink:href="#Merriweather-69"/>
     <use x="1813.4765625" xlink:href="#Merriweather-6d"/>
     <use x="1914.55078125" xlink:href="#Merriweather-65"/>
     <use x="1970.458984375" xlink:href="#Merriweather-73"/>
     <use x="2021.630859375" xlink:href="#Merriweather-20"/>
     <use x="2047.16796875" xlink:href="#Merriweather-66"/>
     <use x="2088.037109375" xlink:href="#Merriweather-6f"/>
     <use x="2148.14453125" xlink:href="#Merriweather-72"/>
     <use x="2193.212890625" xlink:href="#Merriweather-20"/>
     <use x="2218.75" xlink:href="#Merriweather-4c"/>
     <use x="2279.4921875" xlink:href="#Merriweather-6f"/>
     <use x="2339.599609375" xlink:href="#Merriweather-64"/>
     <use x="2401.5625" xlink:href="#Merriweather-69"/>
    </g>
   </g>
  </g>
 </g>
 <defs>
  <clipPath id="pe24c60e319">
   <rect height="288.0" width="837.0" x="135.0" y="36.0"/>
  </clipPath>
 </defs>
</svg>
